<svg xmlns="http://www.w3.org/2000/svg" viewBox="0 0 64 64">
  <defs>
    <linearGradient id="g" x1="0" y1="0" x2="1" y2="1">
      <stop offset="0%" stop-color="#7c3aed"/>
      <stop offset="100%" stop-color="#06b6d4"/>
    </linearGradient>
  </defs>
  <rect width="64" height="64" rx="14" fill="#0b0b16"/>
  <rect x="4" y="4" width="56" height="56" rx="12" fill="url(#g)" opacity="0.2"/>
  <path d="M20 32c0-8 4.7-12 12.5-12 4.4 0 7.7 1.3 10.3 3.7l-4 4.7c-1.7-1.5-3.5-2.3-6-2.3-4.2 0-6.8 2.2-6.8 6.4s2.6 6.5 7 6.5c1.7 0 3.2-.3 4.4-.9v-2.4h-5v-5.2h11.3v11c-2.9 2.1-6.8 3.3-11 3.3C24.8 44.8 20 40 20 32z" fill="#e8eaf0"/>
</svg>
